<svg width="51" height="47" viewBox="0 0 51 47" fill="none" xmlns="http://www.w3.org/2000/svg">
<path d="M18.8009 21.5418V39.1668M18.8009 21.5418H9.60898C8.4391 21.5418 7.85474 21.5418 7.4079 21.7553C7.01485 21.943 6.69552 22.2424 6.49525 22.6109C6.26758 23.0298 6.26758 23.5786 6.26758 24.6754V39.1668H18.8009M18.8009 21.5418V10.967C18.8009 9.87025 18.8009 9.32146 19.0286 8.90255C19.2289 8.53406 19.5482 8.23469 19.9412 8.04694C20.3881 7.8335 20.9724 7.8335 22.1423 7.8335H27.9912C29.1611 7.8335 29.7473 7.8335 30.1941 8.04694C30.5872 8.23469 30.9055 8.53406 31.1058 8.90255C31.3335 9.32146 31.3342 9.87025 31.3342 10.967V15.6668M18.8009 39.1668H31.3342M31.3342 39.1668L43.8676 39.167V18.8004C43.8676 17.7036 43.8668 17.1548 43.6391 16.7359C43.4388 16.3674 43.1217 16.068 42.7287 15.8803C42.2818 15.6668 41.6952 15.6668 40.5254 15.6668H31.3342M31.3342 39.1668V15.6668" stroke="#206FE8" stroke-width="3" stroke-linecap="round" stroke-linejoin="round"/>
</svg>
