<svg width="60" height="60" viewBox="0 0 60 60" fill="none" xmlns="http://www.w3.org/2000/svg">
<path d="M0 8C0 3.58172 3.58172 0 8 0H52C56.4183 0 60 3.58172 60 8V52C60 56.4183 56.4183 60 52 60H8C3.58172 60 0 56.4183 0 52V8Z" fill="url(#paint0_linear_1_365)"/>
<path d="M10.5 23.8333V46.9444C10.5 48.189 10.5 48.8109 10.7422 49.2862C10.9553 49.7043 11.295 50.045 11.7131 50.258C12.188 50.5 12.81 50.5 14.0521 50.5H37.1666M41.6107 21.6111L32.722 30.5L28.2776 26.0556M19.3888 34.5004V17.6115C19.3888 15.1224 19.3888 13.8769 19.8732 12.9262C20.2993 12.0899 20.9787 11.4105 21.815 10.9844C22.7657 10.5 24.0112 10.5 26.5002 10.5H43.3889C45.878 10.5 47.1219 10.5 48.0726 10.9844C48.9089 11.4105 49.5895 12.0899 50.0156 12.9262C50.5 13.8769 50.5 15.1215 50.5 17.6106L50.5 34.4996C50.5 36.9887 50.5 38.2333 50.0156 39.184C49.5895 40.0202 48.9089 40.7011 48.0726 41.1272C47.1228 41.6111 45.8807 41.6111 43.3964 41.6111H26.4929C24.0087 41.6111 22.7647 41.6111 21.815 41.1272C20.9787 40.7011 20.2993 40.0205 19.8732 39.1842C19.3888 38.2335 19.3888 36.9896 19.3888 34.5004Z" stroke="white" stroke-width="2" stroke-linecap="round" stroke-linejoin="round"/>
<defs>
<linearGradient id="paint0_linear_1_365" x1="-2348.5" y1="177.5" x2="-2348.5" y2="237.5" gradientUnits="userSpaceOnUse">
<stop stop-color="#2563EB"/>
<stop offset="1" stop-color="#479AED"/>
</linearGradient>
</defs>
</svg>
