<svg width="54" height="54" viewBox="0 0 54 54" fill="none" xmlns="http://www.w3.org/2000/svg">
<path d="M38.25 45C38.25 41.2721 33.2132 38.25 27 38.25C20.7868 38.25 15.75 41.2721 15.75 45M47.25 38.2508C47.25 35.4829 44.4733 33.1041 40.5 32.0625M6.75 38.2508C6.75 35.4829 9.52671 33.1041 13.5 32.0625M40.5 23.0312C41.8809 21.7953 42.75 19.9991 42.75 18C42.75 14.2721 39.7279 11.25 36 11.25C34.2712 11.25 32.6942 11.8999 31.5 12.9688M13.5 23.0312C12.1191 21.7953 11.25 19.9991 11.25 18C11.25 14.2721 14.2721 11.25 18 11.25C19.7288 11.25 21.3058 11.8999 22.5 12.9688M27 31.5C23.2721 31.5 20.25 28.4779 20.25 24.75C20.25 21.0221 23.2721 18 27 18C30.7279 18 33.75 21.0221 33.75 24.75C33.75 28.4779 30.7279 31.5 27 31.5Z" stroke="#2563EB" stroke-width="3" stroke-linecap="round" stroke-linejoin="round"/>
</svg>
