<svg width="45" height="44" viewBox="0 0 45 44" fill="none" xmlns="http://www.w3.org/2000/svg">
<path d="M18.54 17.97L11.34 33.27L26.64 26.07L33.84 10.77L18.54 17.97ZM22.59 24.27C21.35 24.27 20.34 23.26 20.34 22.02C20.34 20.77 21.35 19.77 22.59 19.77C23.83 19.77 24.84 20.77 24.84 22.02C24.84 23.26 23.83 24.27 22.59 24.27Z" fill="#2563EB"/>
<path d="M22.59 0.27002C10.6 0.27002 0.839996 10.02 0.839996 22.02C0.839996 34.01 10.6 43.77 22.59 43.77C34.58 43.77 44.34 34.01 44.34 22.02C44.34 10.02 34.58 0.27002 22.59 0.27002ZM22.59 40.77C12.25 40.77 3.84 32.35 3.84 22.02C3.84 11.68 12.25 3.27002 22.59 3.27002C32.93 3.27002 41.34 11.68 41.34 22.02C41.34 32.35 32.93 40.77 22.59 40.77Z" fill="#2563EB"/>
<path d="M22.59 0.27002C10.6 0.27002 0.839996 10.02 0.839996 22.02C0.839996 34.01 10.6 43.77 22.59 43.77C34.58 43.77 44.34 34.01 44.34 22.02C44.34 10.02 34.58 0.27002 22.59 0.27002ZM22.59 40.77C12.25 40.77 3.84 32.35 3.84 22.02C3.84 11.68 12.25 3.27002 22.59 3.27002C32.93 3.27002 41.34 11.68 41.34 22.02C41.34 32.35 32.93 40.77 22.59 40.77Z" fill="#2563EB"/>
<path d="M18.54 17.97L11.34 33.27L26.64 26.07L33.84 10.77L18.54 17.97ZM22.59 24.27C21.35 24.27 20.34 23.26 20.34 22.02C20.34 20.77 21.35 19.77 22.59 19.77C23.83 19.77 24.84 20.77 24.84 22.02C24.84 23.26 23.83 24.27 22.59 24.27Z" fill="#2563EB"/>
</svg>
